<svg width="136" height="64" viewBox="0 0 136 64" fill="none" xmlns="http://www.w3.org/2000/svg">
<g id="FieldX" clip-path="url(#clip0_12_1601)">
<g id="Group">
<path id="Vector" d="M96.4732 36.754L99.6185 32.7909L100.228 32.0224L99.7415 31.1472L97.6192 27.3264C96.9135 26.0519 96.1942 24.7828 95.4804 23.5137C94.7665 22.2447 94.0499 20.9756 93.3224 19.712C92.9969 19.1459 92.6742 18.5797 92.3487 18.0108L92.8246 18.0026L95.7539 17.9452L98.6831 17.8768L100.967 17.8139L102.734 20.6939L104.903 24.1729L105.523 25.1712L106.276 24.3698C107.102 23.4891 107.936 22.6139 108.759 21.7277C109.585 20.8443 110.405 19.9582 111.223 19.0666L113.663 16.3807C114.07 15.9349 114.47 15.4782 114.872 15.0269C115.274 14.5756 115.676 14.1216 116.07 13.6621C115.599 14.0423 115.132 14.4307 114.667 14.8163C114.202 15.2019 113.734 15.5876 113.275 15.9814L110.512 18.3336C109.596 19.1213 108.682 19.9144 107.774 20.7103C107.156 21.2491 106.541 21.7907 105.928 22.3349L104.547 19.6628L102.638 16.0361L102.334 15.4618L101.615 15.4426L98.6858 15.3606L95.7566 15.2922L92.8274 15.2348L89.8981 15.1883L87.4886 15.15L88.6482 17.3161C89.3374 18.6016 90.0458 19.8734 90.7433 21.1534C91.4407 22.4334 92.1491 23.7079 92.8574 24.9797C93.5658 26.2542 94.2687 27.5287 94.988 28.795L96.6564 31.7516L94.1921 34.9817L91.148 39.0241C89.1323 41.7291 87.1221 44.4395 85.1446 47.1745C83.1617 49.9041 81.2007 52.6528 79.267 55.4234C78.2988 56.8073 77.3388 58.1967 76.3925 59.5971C75.4407 60.992 74.4998 62.3978 73.5781 63.8173C74.7296 62.5756 75.8592 61.3174 76.9778 60.0511C78.1046 58.7903 79.2151 57.5185 80.32 56.2412C82.5299 53.6867 84.7125 51.113 86.8732 48.5174C89.0366 45.9273 91.1727 43.3154 93.2978 40.6952L96.4732 36.754Z" fill="white"/>
<path id="Vector_2" d="M132.111 3.76643C130.984 5.02728 129.873 6.29908 128.769 7.57634C126.559 10.1309 124.376 12.7045 122.215 15.3001C120.052 17.8902 117.916 20.5022 115.791 23.1223L112.618 27.0663L109.473 31.0295L108.863 31.798L109.35 32.6732L111.472 36.4941C112.178 37.7686 112.897 39.0377 113.611 40.3067C114.325 41.5758 115.041 42.8449 115.769 44.1084C116.094 44.6746 116.417 45.2408 116.743 45.8096L116.267 45.8178L113.337 45.8753L110.408 45.9437L108.124 46.0066L106.358 43.1266L104.189 39.6476L103.568 38.6493L102.816 39.4507C101.99 40.3314 101.156 41.2066 100.332 42.0927C99.5063 42.9761 98.6858 43.8623 97.868 44.7539L95.4283 47.4397C95.0208 47.8855 94.6215 48.3423 94.2194 48.7936C93.8174 49.2449 93.4153 49.6989 93.0215 50.1584C93.4919 49.7782 93.9596 49.3898 94.4246 49.0042C94.8895 48.6185 95.3572 48.2329 95.8167 47.839L98.5791 45.4869C99.4953 44.6992 100.409 43.9061 101.317 43.1102C101.935 42.5714 102.55 42.0298 103.163 41.4855L104.544 44.1577L106.453 47.7843L106.757 48.3587L107.476 48.3778L110.405 48.4599L113.335 48.5283L116.264 48.5857L119.193 48.6322L121.603 48.6705L120.443 46.5043C119.754 45.2189 119.045 43.9471 118.348 42.6671C117.651 41.3871 116.942 40.1125 116.234 38.8408C115.525 37.5662 114.823 36.2917 114.103 35.0254L112.435 32.0715L114.899 28.8414L117.943 24.7989C119.959 22.094 121.969 19.3835 123.947 16.6485C125.93 13.9189 127.891 11.1702 129.824 8.39959C130.792 7.01566 131.752 5.62626 132.699 4.22591C133.651 2.83104 134.591 1.42524 135.513 0.00575256C134.359 1.24199 133.229 2.50011 132.111 3.76643Z" fill="white"/>
<path id="Vector_3" d="M0 43.4162V17.6933H17.8544V23.0156H6.97983V28.5294H16.3501V33.89H6.97983V43.4162H0Z" fill="white"/>
<path id="Vector_4" d="M21.0547 21.3558V16.6133H27.6106V21.3558H21.0547ZM21.134 43.4166V24.1729H27.5367L27.6133 43.4166H21.134Z" fill="white"/>
<path id="Vector_5" d="M40.5302 43.9937C38.5254 43.9937 36.7558 43.5889 35.227 42.7793C33.6981 41.9698 32.5083 40.8128 31.6605 39.3086C30.8126 37.8043 30.3887 36.0238 30.3887 33.967C30.3887 30.5482 31.2502 27.887 32.9733 25.9835C34.6964 24.0799 37.177 23.1309 40.4153 23.1309C42.576 23.1309 44.3237 23.5931 45.6611 24.5203C46.9986 25.4447 47.9887 26.8204 48.6314 28.6474C49.2741 30.4744 49.5832 32.7089 49.5558 35.3564H34.8249L34.0536 31.4617H44.1569L43.3856 33.5431C43.361 31.4617 43.0957 30.0012 42.5952 29.167C42.0947 28.3328 41.2659 27.9144 40.109 27.9144C39.4909 27.9144 38.9275 28.0867 38.4133 28.434C37.8991 28.7814 37.4943 29.3393 37.1989 30.1106C36.9035 30.8819 36.7558 31.9239 36.7558 33.234C36.7558 35.0091 37.1743 36.3656 38.0085 37.3038C38.8427 38.2419 40.2266 38.7123 42.1548 38.7123C42.8495 38.7123 43.5442 38.6303 44.2362 38.4607C44.9309 38.2939 45.5791 38.0942 46.1835 37.8617C46.788 37.6292 47.283 37.4515 47.6687 37.3229V42.7219C46.7688 43.0556 45.7459 43.3509 44.6027 43.608C43.454 43.8651 42.0974 43.9937 40.5302 43.9937Z" fill="white"/>
<path id="Vector_6" d="M58.6555 43.4162H52.332V16.498H58.6555V43.4162Z" fill="white"/>
<path id="Vector_7" d="M72.1921 43.9936C70.521 43.9936 69.0222 43.8213 67.6984 43.474C66.3746 43.1266 65.2505 42.555 64.3234 41.7564C63.3989 40.9605 62.6851 39.8856 62.1818 38.5372C61.6813 37.1888 61.4297 35.4986 61.4297 33.4664C61.4297 30.2801 62.2146 27.7584 63.7818 25.9068C65.349 24.0551 67.7148 23.1307 70.8765 23.1307C71.2376 23.1307 71.7381 23.1635 72.3808 23.2264C73.0235 23.2921 73.7046 23.4507 74.4239 23.7078C75.1432 23.9649 75.7996 24.4271 76.3904 25.0972L75.1952 27.102V15.8418H81.4803V37.9765C81.4803 38.9529 81.2287 39.8145 80.7282 40.5611C80.2276 41.3078 79.5384 41.9369 78.6659 42.4511C77.7907 42.9652 76.7952 43.3509 75.6765 43.608C74.5579 43.8651 73.3982 43.9936 72.1921 43.9936ZM72.4218 38.7095C73.2697 38.7095 73.9452 38.5946 74.4458 38.3622C74.9463 38.1297 75.1979 37.7714 75.1979 37.2818V28.9509C74.7876 28.7184 74.361 28.5461 73.9261 28.4312C73.4885 28.3164 73.0509 28.2589 72.616 28.2589C71.5876 28.2589 70.7124 28.4121 69.9931 28.7211C69.2738 29.0302 68.7323 29.5772 68.374 30.3594C68.0129 31.1444 67.8352 32.2548 67.8352 33.6962C67.8352 34.7765 67.9883 35.69 68.2974 36.434C68.6064 37.1806 69.1015 37.744 69.7825 38.1297C70.4608 38.5181 71.3415 38.7095 72.4218 38.7095Z" fill="white"/>
</g>
</g>
<defs>
<clipPath id="clip0_12_1601">
<rect width="135.658" height="64" fill="white"/>
</clipPath>
</defs>
</svg>
